<?xml version="1.0" encoding="UTF-8" standalone="no"?>
<svg
   xmlns:dc="http://purl.org/dc/elements/1.1/"
   xmlns:cc="http://creativecommons.org/ns#"
   xmlns:rdf="http://www.w3.org/1999/02/22-rdf-syntax-ns#"
   xmlns:svg="http://www.w3.org/2000/svg"
   xmlns="http://www.w3.org/2000/svg"
   xmlns:sodipodi="http://sodipodi.sourceforge.net/DTD/sodipodi-0.dtd"
   xmlns:inkscape="http://www.inkscape.org/namespaces/inkscape"
   width="297mm"
   height="210mm"
   viewBox="-300 -265 841.88977 595.2756"
   version="1.1"
   id="svg2"
   inkscape:version="0.91 r13725"
   sodipodi:docname="uwp_5_target.svg"
   inkscape:export-filename="P:\github.com\enzian\articles\talks\netstandard\img\uwp_5_target.png"
   inkscape:export-xdpi="68.419998"
   inkscape:export-ydpi="68.419998">
  <metadata
     id="metadata21">
    <rdf:RDF>
      <cc:Work
         rdf:about="">
        <dc:format>image/svg+xml</dc:format>
        <dc:type
           rdf:resource="http://purl.org/dc/dcmitype/StillImage" />
        <dc:title></dc:title>
      </cc:Work>
    </rdf:RDF>
  </metadata>
  <defs
     id="defs19" />
  <sodipodi:namedview
     pagecolor="#ffffff"
     bordercolor="#666666"
     borderopacity="1"
     objecttolerance="10"
     gridtolerance="10"
     guidetolerance="10"
     inkscape:pageopacity="0"
     inkscape:pageshadow="2"
     inkscape:window-width="1920"
     inkscape:window-height="1137"
     id="namedview17"
     showgrid="false"
     inkscape:zoom="0.73512256"
     inkscape:cx="438.79553"
     inkscape:cy="366.17849"
     inkscape:window-x="3832"
     inkscape:window-y="-8"
     inkscape:window-maximized="1"
     inkscape:current-layer="svg2"
     fit-margin-top="0"
     fit-margin-left="0"
     fit-margin-right="0"
     fit-margin-bottom="0"
     units="mm" />
  <circle
     style="fill:#4444ff;fill-opacity:0.60392157;stroke:#000000;stroke-width:2;opacity:0.402"
     cy="-119.60022"
     cx="162.9073"
     r="160"
     id="c"
     transform="scale(1,-1)" />
  <circle
     transform="matrix(-0.5,-0.8660254,-0.8660254,0.5,0,0)"
     id="use7"
     r="160"
     cx="-11.127614"
     cy="-127.87889"
     style="fill:#44c244;fill-opacity:0.60392157;stroke:#000000;stroke-width:2;opacity:0.402" />
  <circle
     transform="matrix(-0.5,0.8660254,0.8660254,0.5,0,0)"
     id="use9"
     r="160"
     cx="68.720299"
     cy="26.979105"
     style="fill:#ff4444;fill-opacity:0.60392157;stroke:#000000;stroke-width:2;opacity:0.402" />
  <path
     d="m 382.9073,119.60021 a 220,220 0 1 0 -439.999999,0 60.000002,60.000002 0 0 0 120.000003,0 100,100 0 1 1 199.999996,0 60,60 0 0 0 120,0 z"
     id="path13"
     inkscape:connector-curvature="0"
     style="fill:#ffed44;fill-opacity:0.60392157;stroke:#000000;stroke-width:2;stroke-opacity:1;opacity:0.402" />
  <path
     d="m 292.9073,119.60021 a 130,130 0 1 0 -259.999996,0 30,30 0 0 0 60,0 70,70 0 1 1 139.999996,0 90,90 0 0 0 180,0 250,250 0 1 0 -499.999999,0 30,30 0 0 0 60,0 190,190 0 1 1 379.999999,0 30,30 0 0 1 -60,0 z"
     id="path15"
     inkscape:connector-curvature="0"
     style="fill:#b716e9;fill-opacity:0.60392157;stroke:#000000;stroke-width:2;stroke-opacity:1;opacity:0.402" />
  <text
     xml:space="preserve"
     style="font-style:normal;font-weight:normal;font-size:32px;line-height:125%;font-family:sans-serif;letter-spacing:0px;word-spacing:0px;fill:#000000;fill-opacity:1;stroke:none;stroke-width:1px;stroke-linecap:butt;stroke-linejoin:miter;stroke-opacity:1"
     x="-253.67883"
     y="152.49931"
     id="text4137"
     sodipodi:linespacing="125%"
     transform="matrix(0.78960457,-0.61361603,0.61361603,0.78960457,0,0)"><tspan
       sodipodi:role="line"
       id="tspan4139"
       x="-253.67883"
       y="152.49931"
       style="font-style:normal;font-variant:normal;font-weight:normal;font-stretch:normal;font-size:150px;font-family:'Segoe UI';-inkscape-font-specification:'Segoe UI';fill:#d40000">DISASTER</tspan></text>
</svg>
